<?xml version="1.0" encoding="UTF-8" standalone="no"?>
<!-- Created with Inkscape (http://www.inkscape.org/) -->

<svg
   width="32"
   height="32"
   viewBox="0 0 8.4666662 8.4666662"
   version="1.1"
   id="svg1"
   xml:space="preserve"
   inkscape:version="1.3.2 (091e20e, 2023-11-25)"
   sodipodi:docname="favicon-dark.svg"
   xmlns:inkscape="http://www.inkscape.org/namespaces/inkscape"
   xmlns:sodipodi="http://sodipodi.sourceforge.net/DTD/sodipodi-0.dtd"
   xmlns="http://www.w3.org/2000/svg"
   xmlns:svg="http://www.w3.org/2000/svg"><sodipodi:namedview
     id="namedview1"
     pagecolor="#ffffff"
     bordercolor="#000000"
     borderopacity="0.25"
     inkscape:showpageshadow="2"
     inkscape:pageopacity="0.0"
     inkscape:pagecheckerboard="0"
     inkscape:deskcolor="#d1d1d1"
     inkscape:document-units="mm"
     inkscape:zoom="27.010153"
     inkscape:cx="15.068408"
     inkscape:cy="19.103927"
     inkscape:window-width="2560"
     inkscape:window-height="1531"
     inkscape:window-x="0"
     inkscape:window-y="0"
     inkscape:window-maximized="1"
     inkscape:current-layer="layer1" /><defs
     id="defs1" /><g
     inkscape:label="Layer 1"
     inkscape:groupmode="layer"
     id="layer1"><g
       id="g1"
       style="display:inline;fill:#4682b4;fill-opacity:1"><path
         style="display:inline;fill:#4682b4;fill-opacity:1"
         d="M 0.72920167,8.4545344 C 0.51396773,8.4181344 0.3139191,8.2961265 0.187844,8.124365 0.09831082,8.0023873 0.05036501,7.8783603 0.02860536,7.7124442 0.01791837,7.6309564 0.01379075,6.3715667 0.01690328,4.1419901 L 0.02171195,0.69742962 0.05827188,0.58978711 C 0.14962886,0.32080691 0.34994971,0.12231829 0.6141663,0.03897718 L 0.7317332,0.00189337 h 3.5088259 3.508826 l 0.1175668,0.03708381 c 0.2690587,0.08486842 0.4705482,0.287482 0.5559884,0.55909012 l 0.036466,0.11592271 V 4.2330722 7.7521544 L 8.4224306,7.870065 C 8.3393324,8.1350539 8.1414222,8.3359603 7.873226,8.4275843 L 7.7658972,8.4642511 4.2900955,8.466588 C 2.3784046,8.4678734 0.77600235,8.4624492 0.72920167,8.4545344 Z M 3.7947318,6.6329154 V 6.4658986 l -0.1197129,0.00922 c -0.065842,0.00507 -0.182121,0.013769 -0.2583976,0.019327 l -0.1386848,0.010106 0.010572,-0.088295 c 0.00581,-0.048563 0.010637,-0.4925758 0.010716,-0.9866963 l 1.436e-4,-0.898401 h 0.2459032 0.2459033 l 0.090657,0.098207 c 0.049862,0.054014 0.1487831,0.1937422 0.2198254,0.3105072 0.2442505,0.4014496 0.688547,1.1068332 0.8185734,1.2996012 0.13924,0.2064274 0.341007,0.4483569 0.4319358,0.5179145 l 0.055614,0.042543 h 0.465633 0.4656322 L 6.334194,6.6798694 6.3293426,6.5598066 6.2257498,6.5470068 C 5.9968701,6.5187266 5.8260083,6.4095927 5.6608468,6.1861884 5.6071433,6.1135467 5.4279507,5.8399981 5.2626411,5.5783026 4.8353753,4.9019141 4.6453098,4.6250389 4.5453785,4.5334404 L 4.4583532,4.4536716 4.5847539,4.4240457 C 4.9774692,4.332001 5.2870425,4.1559052 5.5027393,3.9018645 5.6083175,3.7775178 5.6662957,3.6713616 5.7245211,3.4957893 5.8916192,2.9919229 5.8004185,2.4835151 5.4869284,2.1713041 5.2496098,1.9349538 4.9151774,1.7962473 4.4056803,1.7228541 4.2540172,1.701007 4.0300732,1.6938743 3.2932357,1.6874226 2.7858303,1.6829798 2.3232845,1.6844352 2.2653561,1.690657 L 2.1600318,1.701969 v 0.1648562 0.1648561 l 0.078432,-0.00836 c 0.043138,-0.0046 0.1564524,-0.012682 0.2518099,-0.017964 l 0.1733773,-0.0096 -0.0044,2.0005002 C 2.6568282,5.0965283 2.6483658,6.0585809 2.640444,6.1341477 2.6118807,6.4066176 2.5095815,6.5114582 2.2384643,6.5461141 l -0.078432,0.010026 V 6.678036 6.7999322 h 0.81735 0.81735 z M 3.4013952,4.2373408 3.2970208,4.2314307 3.3032352,3.2676089 c 0.00569,-0.8824424 0.00875,-0.9705922 0.036268,-1.0440076 0.038653,-0.1031296 0.1179255,-0.1818915 0.2172249,-0.2158251 0.1021064,-0.034893 0.4212723,-0.035918 0.6296561,-0.00202 0.6134808,0.099789 0.8962932,0.4388602 0.8962932,1.0745906 0,0.3626326 -0.082953,0.5929241 -0.287516,0.7981897 -0.1410309,0.1415154 -0.3179309,0.235547 -0.5561822,0.29564 -0.2452136,0.061849 -0.5092261,0.08176 -0.8375839,0.063167 z"
         id="path1" /></g><path
       style="fill:#ffffff;fill-opacity:1;stroke-width:0.0370231"
       d="m 8.1821084,25.25047 c 0,-0.430517 0.00245,-0.444049 0.083302,-0.459778 0.045816,-0.0089 0.2332456,-0.04343 0.41651,-0.07671 0.7573297,-0.137514 1.0945389,-0.45021 1.2587898,-1.167281 0.086016,-0.375517 0.1243698,-3.600691 0.1273478,-10.708368 l 0.0022,-5.3215053 -0.2128827,0.017759 C 9.7403188,7.5443537 9.3529645,7.5702707 8.996617,7.5921797 8.6402695,7.6140887 8.3112266,7.6409687 8.2654105,7.6519132 L 8.1821084,7.671812 V 7.061183 6.4505539 l 0.212883,-0.028876 c 0.296432,-0.040209 5.4860316,-0.024891 6.7980356,0.020065 1.135106,0.038894 1.686043,0.1004318 2.486677,0.2777515 2.456596,0.5440729 3.847336,1.8172251 4.183925,3.8301716 0.08406,0.502735 0.05782,1.405396 -0.05642,1.940796 -0.246711,1.156222 -0.648228,1.902735 -1.420493,2.641025 -0.768066,0.734276 -1.705861,1.220142 -2.985852,1.546954 -0.295259,0.07539 -0.542438,0.142479 -0.549286,0.149096 -0.0068,0.0066 0.126703,0.150816 0.29678,0.320446 0.46103,0.459816 1.020981,1.265877 2.528963,3.640496 1.342018,2.113275 1.779621,2.748241 2.144618,3.111857 0.570136,0.567981 1.031229,0.784879 1.88211,0.885344 l 0.212883,0.02514 5.06e-4,0.358312 c 2.78e-4,0.197071 0.01055,0.395797 0.02283,0.441613 l 0.02232,0.0833 H 22.21506 20.467529 l -0.216484,-0.170079 c -0.410244,-0.322307 -1.180192,-1.266043 -1.794382,-2.1994 -0.518981,-0.788671 -1.478185,-2.304691 -2.201948,-3.480173 -0.850139,-1.380734 -1.320194,-2.080591 -1.634961,-2.43427 l -0.271836,-0.305441 h -0.954076 -0.954075 l -0.0026,3.396871 c -0.0014,1.868279 -0.01606,3.546814 -0.03248,3.730079 -0.01642,0.183264 -0.0231,0.340614 -0.01485,0.349667 0.0083,0.0091 0.41855,-0.01216 0.911778,-0.04715 0.493228,-0.03499 0.925933,-0.06322 0.961568,-0.06274 0.05905,7.93e-4 0.06479,0.05497 0.06479,0.611752 v 0.610881 H 11.255027 8.1821084 Z m 6.7404236,-9.257496 c 1.559163,-0.188219 2.690515,-0.692771 3.392815,-1.513101 0.647959,-0.756857 0.899213,-1.549308 0.899213,-2.836103 0,-1.443956 -0.336857,-2.3883717 -1.104139,-3.095574 C 17.816402,8.2771991 17.565295,8.1177303 17.153496,7.9404869 16.4527,7.6388562 15.802872,7.515695 14.772223,7.4891666 13.60171,7.4590381 13.254995,7.5426272 12.888876,7.9432196 12.60953,8.248869 12.552544,8.4399899 12.514553,9.198637 c -0.01738,0.34705 -0.03715,2.022144 -0.04394,3.72243 l -0.01234,3.09143 0.407255,0.02319 c 0.520575,0.02964 1.652363,0.0061 2.056999,-0.04271 z"
       id="path4"
       transform="scale(0.26458333)" /></g></svg>
